HIERARCHY
ROOT Hips
{
  OFFSET 3.13124 94.3669 -3.18751
  CHANNELS  6 Xposition Yposition Zposition Zrotation Xrotation Yrotation
  JOINT LeftUpLeg
  {
    OFFSET 8.64259 1.95398 -2.38835
    CHANNELS 3 Zrotation Xrotation Yrotation
    JOINT LeftLeg
    {
      OFFSET 43.7702 0 0
      CHANNELS 3 Zrotation Xrotation Yrotation
      JOINT LeftFoot
      {
        OFFSET 40.6238 0 0
        CHANNELS 3 Zrotation Xrotation Yrotation
        JOINT LeftToeBase
        {
          OFFSET 12.7242 0 0
          CHANNELS 3 Zrotation Xrotation Yrotation
          End Site
          {
            OFFSET 0 0 0
          }
        }
      }
    }
  }
  JOINT RightUpLeg
  {
    OFFSET -8.2249 1.95398 -2.59336
    CHANNELS 3 Zrotation Xrotation Yrotation
    JOINT RightLeg
    {
      OFFSET 43.5653 0 0
      CHANNELS 3 Zrotation Xrotation Yrotation
      JOINT RightFoot
      {
        OFFSET 40.6238 0 0
        CHANNELS 3 Zrotation Xrotation Yrotation
        JOINT RightToeBase
        {
          OFFSET 12.7242 0 0
          CHANNELS 3 Zrotation Xrotation Yrotation
          End Site
          {
            OFFSET 0 0 0
          }
        }
      }
    }
  }
  JOINT Spine
  {
    OFFSET 0.165834 0.87714 6.61349
    CHANNELS 3 Zrotation Xrotation Yrotation
    JOINT Spine1
    {
      OFFSET 7.38962 1.71661e-005 0
      CHANNELS 3 Zrotation Xrotation Yrotation
      JOINT Spine2
      {
        OFFSET 11.9445 1.14441e-005 0
        CHANNELS 3 Zrotation Xrotation Yrotation
        JOINT Spine3
        {
          OFFSET 14.7254 4.19617e-005 0
          CHANNELS 3 Zrotation Xrotation Yrotation
          JOINT Spine4
          {
            OFFSET 10.9679 0 0
            CHANNELS 3 Zrotation Xrotation Yrotation
            JOINT RightShoulder
            {
              OFFSET 2.46616 -1.6653 3.69651
              CHANNELS 3 Zrotation Xrotation Yrotation
              JOINT RightArm
              {
                OFFSET 13.0012 0 0
                CHANNELS 3 Zrotation Xrotation Yrotation
                JOINT RightForeArm
                {
                  OFFSET 28.7848 1.52588e-005 0
                  CHANNELS 3 Zrotation Xrotation Yrotation
                  JOINT RightHand
                  {
                    OFFSET 26.5688 1.52588e-005 0
                    CHANNELS 3 Zrotation Xrotation Yrotation
                    End Site
                    {
                      OFFSET 0 0 0
                    }
                  }
                }
              }
            }
            JOINT LeftShoulder
            {
              OFFSET 2.38034 -1.29275 -3.75231
              CHANNELS 3 Zrotation Xrotation Yrotation
              JOINT LeftArm
              {
                OFFSET 16.3182 6.10352e-005 0
                CHANNELS 3 Zrotation Xrotation Yrotation
                JOINT LeftForeArm
                {
                  OFFSET 27.0901 0 0
                  CHANNELS 3 Zrotation Xrotation Yrotation
                  JOINT LeftHand
                  {
                    OFFSET 24.5451 1.52588e-005 0
                    CHANNELS 3 Zrotation Xrotation Yrotation
                    End Site
                    {
                      OFFSET 0 0 0
                    }
                  }
                }
              }
            }
            JOINT Neck
            {
              OFFSET 5.0226 -0.0266342 0
              CHANNELS 3 Zrotation Xrotation Yrotation
              JOINT Head
              {
                OFFSET 6.69363 2.86102e-005 0
                CHANNELS 3 Zrotation Xrotation Yrotation
                End Site
                {
                  OFFSET 0 0 0
                }
              }
            }
          }
        }
      }
    }
  }
}
MOTION
Frames:	12
Frame Time:	0.0333333
-3.62905 97.6301 -21.6165 26.7969 -89.9985 26.7818 -170.566 3.54253 93.0564 -10.0173 9.28647 1.79021 63.9205 1.35397 0.6984 28.7808 4.93461e-006 4.67508e-007 168.543 2.79246 91.3383 -10.1044 -11.1741 -0.798123 64.0198 -1.62835 -0.865979 28.7808 1.53307e-005 2.9514e-005 -0.00136323 6.3402 -89.9832 14.1935 -2.70421e-005 -3.95772e-005 2.5225 -2.81667e-005 -4.4757e-005 -20.0126 -1.01031e-006 -4.5949e-005 -1.65376e-025 -1.94126e-019 -4.88105e-005 100.895 -18.6185 -85.3183 11.2711 41.8256 -35.6223 -4.12148 0.455965 -3.90489 -5.37983 -0.320001 -0.0162404 -79.1687 -21.7058 93.9102 3.82563 -40.2357 -24.3437 4.47903 42.8405 -4.70454 -1.60681 -0.0687778 -1.0937 1.75766 0.00244664 -0.00490434 -7.41628 0.00122546 0.00476902 
-3.65652 97.5819 -21.5912 1.79594 -89.9767 1.73767 -170.553 3.71603 93.0188 -10.3757 8.96593 1.72431 64.1065 1.46172 0.755126 28.7808 4.93461e-006 4.67508e-007 168.59 2.63044 91.2715 -9.85761 -10.6514 -0.839042 65.2717 -0.343255 -0.16919 28.7808 1.53307e-005 2.9514e-005 -0.00653562 6.33964 -89.9142 14.1935 0.000627936 0.00083455 2.5225 0.000663485 0.000797338 -20.0126 0.000577156 0.000982857 -9.87881e-009 0.000577844 0.000979528 100.923 -18.6611 -85.3112 11.1935 41.8387 -35.5079 -4.09777 0.455863 -4.0874 -5.37983 -0.320001 -0.0162404 -79.1462 -21.6719 93.9091 3.75281 -40.2512 -24.3492 4.84946 43.4074 -4.9611 -2.47315 -0.0935989 -0.797581 1.82158 0.0381519 -0.0917882 -7.50297 0.0221114 0.0821881 
-3.67856 97.6105 -21.5789 4.64068 -89.9389 4.65891 -170.529 3.57756 93.1127 -10.0035 9.43645 1.79709 64.0568 1.52236 0.796332 28.7808 4.93461e-006 4.67508e-007 168.563 2.80489 91.4126 -10.0671 -10.9649 -0.742896 64.0511 -1.8658 -0.999662 28.7808 1.53307e-005 2.9514e-005 0.00328392 6.34014 -89.9687 14.1935 0.0158638 0.0238448 2.52249 0.0168887 0.0231164 -20.0126 0.00795835 0.0275091 -3.81845e-006 0.00795411 0.0275054 100.967 -18.8858 -85.1205 11.2024 41.8486 -35.6602 -4.08287 0.455756 -4.27178 -5.37983 -0.320001 -0.0162404 -79.1777 -21.5468 93.8814 3.7538 -40.2179 -24.3183 4.72468 42.6194 -4.93465 -2.57562 -0.0967598 -0.857717 1.89854 0.0269971 -0.29148 -7.59844 0.0632217 0.176058 
-3.68864 97.62 -21.5545 27.7226 -89.9173 27.6992 -170.584 3.57696 93.0711 -9.99214 9.54322 1.88748 63.9146 1.152 0.583264 28.7808 4.93461e-006 4.67508e-007 168.556 2.79558 91.364 -10.0757 -11.2219 -0.801293 64.1592 -1.49436 -0.790058 28.7808 1.53307e-005 2.9514e-005 -0.00614443 6.34013 -89.9658 14.1935 -0.00192322 0.0293055 2.5225 -0.000628398 0.0293458 -20.0126 -0.0106384 0.0273655 5.08347e-006 -0.0106435 0.0273651 100.962 -18.8548 -85.1344 11.235 41.8509 -35.7019 -4.09534 0.455677 -4.40255 -5.37983 -0.320001 -0.0162404 -79.1862 -21.7122 93.8694 3.97405 -40.2964 -24.1832 4.69007 42.6712 -4.87043 -2.68203 -0.0999226 -0.885638 1.97148 0.0525213 -0.268558 -7.64874 0.0903336 0.252895 
-3.69641 97.618 -21.52 13.1208 -89.91 13.1358 -170.548 3.53699 93.1156 -9.92907 9.31141 1.79036 64.0071 1.46021 0.76202 28.7808 4.93461e-006 4.67508e-007 168.567 2.83926 91.4253 -10.1665 -11.2788 -0.784759 63.8473 -1.9062 -1.01987 28.7808 1.53307e-005 2.9514e-005 0.000118437 6.34022 -90.0053 14.1935 -0.000551921 0.000132987 2.5225 -0.000540335 0.000146666 -20.0126 -0.000565386 -4.32061e-005 -4.20388e-010 -0.000563734 -4.27264e-005 100.975 -18.6812 -85.126 11.2648 41.8348 -35.6887 -4.10256 0.455639 -4.46495 -5.37983 -0.320001 -0.0162404 -79.1717 -21.9074 93.871 4.12685 -40.2935 -24.105 4.79604 43.3223 -4.87566 -3.10117 -0.111626 -1.05748 2.0476 0.0348579 -0.0183711 -7.75811 0.117129 0.136673 
-3.6918 97.6035 -21.4944 9.66558 -89.9076 9.66739 -170.574 3.47555 93.0865 -9.84922 9.20663 1.78838 64.0868 1.50238 0.788339 28.7808 4.93461e-006 4.67508e-007 168.549 2.82745 91.3956 -10.1707 -11.3197 -0.795365 63.9986 -1.75394 -0.933878 28.7808 1.53307e-005 2.9514e-005 -0.00936408 6.34022 -90.0024 14.1935 -0.015161 0.0245713 2.5225 -0.0140653 0.0252168 -20.0126 -0.0218488 0.0188791 7.19758e-006 -0.0218499 0.0188738 100.94 -18.7015 -85.1973 11.3172 41.8207 -35.696 -4.11708 0.455643 -4.45702 -5.37983 -0.320001 -0.0162404 -79.1338 -21.7916 93.9938 4.09289 -40.2755 -24.1567 4.84164 43.6179 -4.8612 -3.41298 -0.12148 -0.960338 2.11138 0.105853 -0.0758372 -7.83735 0.116651 0.0920561 
-3.70683 97.6261 -21.4616 -15.5082 -89.9057 -15.499 -170.516 3.55691 93.1253 -10.0495 9.2944 1.79403 64.0189 1.31538 0.676496 28.7808 4.93461e-006 4.67508e-007 168.537 2.71351 91.3722 -10 -11.0912 -0.743373 64.2646 -1.40376 -0.740848 28.7808 1.53307e-005 2.9514e-005 -0.00247431 6.34013 -89.9658 14.1935 0.00042642 -0.000673774 2.5225 0.000394814 -0.000705503 -20.0126 0.000606051 -0.000520072 5.53324e-009 0.000605823 -0.000523307 100.946 -18.6585 -85.2571 11.2334 41.897 -35.5892 -4.1357 0.455674 -4.40708 -5.37983 -0.320001 -0.0162404 -79.1632 -21.8835 93.8487 4.19392 -40.3534 -24.0888 4.80792 43.4833 -4.86607 -3.23783 -0.117837 -0.757425 1.89946 0.0405447 -0.00371132 -7.51907 0.097116 0.0339437 
-3.69311 97.6137 -21.4277 -22.3448 -89.8579 -22.324 -170.518 3.52108 93.1292 -9.9498 9.27777 1.77682 64.088 1.42004 0.738709 28.7808 4.93461e-006 4.67508e-007 168.554 2.77068 91.4037 -10.0578 -11.2909 -0.76746 64.0056 -1.73925 -0.92719 28.7808 1.53307e-005 2.9514e-005 -0.00119889 6.34022 -89.9852 14.1934 1.67641e-005 3.69323e-005 2.52246 2.26925e-005 3.26106e-005 -20.0127 -4.82259e-007 4.44837e-005 -3.39244e-005 3.26889e-006 4.11012e-005 100.977 -18.5977 -85.2456 11.2473 41.8643 -35.5892 -4.12331 0.455695 -4.37364 -5.37983 -0.320001 -0.0162404 -79.0887 -21.8453 93.9713 4.06842 -40.365 -24.2312 4.74369 42.8746 -4.84137 -3.02132 -0.11008 -0.916386 2.03833 0.0821608 0.0569499 -7.70073 0.0964795 -0.0234182 
-3.67962 97.5844 -21.3985 -24.13 -89.8181 -24.1342 -170.53 3.52932 93.0891 -9.96515 9.22318 1.76283 64.2009 1.5189 0.795303 28.7808 4.93461e-006 4.67508e-007 168.589 2.73602 91.3842 -9.9974 -11.5816 -0.836493 64.3024 -1.75393 -0.938759 28.7808 1.53307e-005 2.9514e-005 -0.00256542 6.33987 -89.969 14.1941 -0.000281941 -0.000797273 2.52317 -0.000316582 -0.000783824 -20.012 -3.69108e-005 -0.000842065 0.000663397 -3.18484e-005 -0.000842675 101.032 -18.5745 -85.2005 11.3013 41.8553 -35.6743 -4.13758 0.455657 -4.33734 -5.37983 -0.320001 -0.0162404 -79.0357 -21.7664 94.0162 4.00175 -40.3402 -24.2733 4.73731 42.8827 -4.85026 -2.92747 -0.10745 -0.880097 1.99903 0.100958 0.0520598 -7.62344 0.0841962 0.00285857 
-3.67333 97.5985 -21.3648 -34.5106 -89.8404 -34.4921 -170.473 3.52843 93.122 -10.0847 9.31814 1.75321 64.2239 1.57516 0.824309 28.7808 4.93461e-006 4.67508e-007 168.552 2.61375 91.332 -9.86414 -10.9813 -0.783288 64.7833 -0.844658 -0.436199 28.7808 1.53307e-005 2.9514e-005 -0.00678928 6.33047 -89.9491 14.2129 -0.00921265 -0.0209244 2.54194 -0.0101219 -0.0205057 -19.9932 -0.00250087 -0.0227245 0.0194387 -0.00249665 -0.0227259 100.915 -18.5314 -85.2884 11.3119 41.8979 -35.6604 -4.15986 0.454716 -4.29903 -5.37983 -0.320001 -0.0162404 -79.1445 -21.8446 93.9608 4.11415 -40.4134 -24.1836 4.59661 41.5367 -4.86848 -3.10275 -0.113963 -0.692369 1.69901 0.138138 0.140064 -7.45377 0.117735 -0.0593529 
-3.65352 97.5728 -21.3265 -7.63317 -89.8506 -7.71734 -170.502 3.65037 93.0269 -10.3543 9.28842 1.73804 64.2722 1.37414 0.705255 28.7808 4.93461e-006 4.67508e-007 168.543 2.49869 91.2144 -9.72162 -11.4226 -0.848859 65.3561 -0.787286 -0.416816 28.7808 1.53307e-005 2.9514e-005 -0.0190095 6.32549 -89.9035 14.2228 -0.0246777 -0.00749313 2.55185 -0.0249889 -0.00640867 -19.9833 -0.0212945 -0.0145719 0.0293434 -0.0212888 -0.0145698 100.921 -18.5553 -85.2709 11.2821 41.8934 -35.6314 -4.14637 0.453682 -4.27238 -5.37983 -0.320001 -0.0162404 -79.1783 -21.7357 93.8781 4.10047 -40.375 -24.0787 4.66912 42.6866 -4.83811 -2.69362 -0.100881 -0.676133 1.51343 0.115383 0.0845538 -7.29454 0.107254 -0.0318554 
-3.63138 97.6006 -21.2791 18.1278 -89.8607 18.1305 -170.482 3.42784 93.1018 -9.95136 9.33217 1.73629 64.2363 1.41534 0.736785 28.7808 4.93461e-006 4.67508e-007 168.529 2.61458 91.315 -9.96241 -11.1058 -0.787981 64.4221 -1.32789 -0.699897 28.7808 1.53307e-005 2.9514e-005 -0.0197718 6.32792 -89.9791 14.218 -0.0403761 -0.020928 2.54705 -0.0412622 -0.0191353 -19.9881 -0.032224 -0.0321009 0.0245379 -0.0322206 -0.0320952 100.961 -18.5378 -85.1611 11.3152 41.8273 -35.6826 -4.11531 0.452576 -4.23899 -5.37983 -0.320001 -0.0162404 -79.1609 -21.7247 93.9257 4.05771 -40.3498 -24.1553 4.71573 42.7955 -4.85324 -2.92067 -0.107865 -0.747846 1.53004 0.135756 0.122178 -7.40861 0.122218 -0.0725512 
